<svg width="65" height="66" viewBox="0 0 65 66" fill="none" xmlns="http://www.w3.org/2000/svg">
<g clip-path="url(#clip0_2_14)">
<path d="M49.7656 0H15.2344C6.82066 0 0 6.9256 0 15.4688V50.5312C0 59.0744 6.82066 66 15.2344 66H49.7656C58.1793 66 65 59.0744 65 50.5312V15.4688C65 6.9256 58.1793 0 49.7656 0Z" fill="url(#paint0_radial_2_14)"/>
<path d="M49.7656 0H15.2344C6.82066 0 0 6.9256 0 15.4688V50.5312C0 59.0744 6.82066 66 15.2344 66H49.7656C58.1793 66 65 59.0744 65 50.5312V15.4688C65 6.9256 58.1793 0 49.7656 0Z" fill="#8F9092"/>
<path d="M32.5023 7.21875C25.6067 7.21875 24.7411 7.24943 22.033 7.37447C19.3299 7.50028 17.4847 7.9347 15.8704 8.57227C14.2002 9.23072 12.7837 10.1117 11.3725 11.5451C9.95998 12.9783 9.09238 14.4166 8.44188 16.1117C7.81219 17.7514 7.38385 19.6257 7.26223 22.3691C7.14111 25.1192 7.10938 25.9983 7.10938 33.0003C7.10938 40.0022 7.13984 40.8782 7.26273 43.6281C7.38715 46.3727 7.81498 48.2463 8.44238 49.8854C9.09137 51.5813 9.95897 53.0197 11.3707 54.4526C12.7816 55.8868 14.1982 56.7698 15.8671 57.4282C17.4827 58.0658 19.3281 58.5002 22.0307 58.626C24.7391 58.7511 25.6039 58.7818 32.4992 58.7818C39.3956 58.7818 40.2584 58.7511 42.9665 58.626C45.6696 58.5002 47.5168 58.0658 49.1324 57.4282C50.8018 56.7698 52.2163 55.8868 53.627 54.4526C55.0395 53.0197 55.9069 51.5813 56.5576 49.8862C57.1817 48.2463 57.6103 46.3722 57.7373 43.6286C57.8589 40.8787 57.8906 40.0022 57.8906 33.0003C57.8906 25.9983 57.8589 25.1197 57.7373 22.3696C57.6103 19.6249 57.1817 17.7517 56.5576 16.1125C55.9069 14.4166 55.0395 12.9783 53.627 11.5451C52.2148 10.1111 50.8023 9.2302 49.1309 8.57252C47.5122 7.9347 45.6661 7.50002 42.963 7.37447C40.2545 7.24943 39.3923 7.21875 32.4944 7.21875H32.5023ZM30.2245 11.8648C30.9006 11.8638 31.655 11.8648 32.5023 11.8648C39.2818 11.8648 40.0852 11.8895 42.7624 12.013C45.238 12.128 46.5816 12.548 47.4767 12.9009C48.6616 13.3681 49.5064 13.9268 50.3946 14.8294C51.2832 15.7317 51.8332 16.591 52.2945 17.7942C52.6421 18.7017 53.0563 20.0661 53.169 22.5797C53.2906 25.2976 53.317 26.1138 53.317 32.9943C53.317 39.8748 53.2906 40.6913 53.169 43.4089C53.0557 45.9226 52.6421 47.2869 52.2945 48.1947C51.8345 49.3979 51.2832 50.2546 50.3946 51.1564C49.5059 52.0588 48.6621 52.6172 47.4767 53.0846C46.5827 53.4391 45.238 53.8581 42.7624 53.973C40.0857 54.0965 39.2818 54.1234 32.5023 54.1234C25.7225 54.1234 24.9189 54.0965 22.2424 53.973C19.7669 53.857 18.4232 53.4371 17.5274 53.0841C16.3427 52.6167 15.4962 52.0583 14.6075 51.1559C13.7188 50.2536 13.1688 49.3964 12.7075 48.1926C12.3599 47.2849 11.9458 45.9205 11.833 43.4069C11.7114 40.689 11.6871 39.8728 11.6871 32.9879C11.6871 26.1033 11.7114 25.2911 11.833 22.5733C11.9463 20.0596 12.3599 18.6953 12.7075 17.7865C13.1678 16.5833 13.7188 15.724 14.6077 14.8216C15.4964 13.9193 16.3427 13.3606 17.5277 12.8924C18.4227 12.5379 19.7669 12.119 22.2424 12.0035C24.5847 11.896 25.4924 11.8638 30.2245 11.8583V11.8648ZM46.0558 16.1455C44.3737 16.1455 43.0089 17.53 43.0089 19.2382C43.0089 20.9462 44.3737 22.332 46.0558 22.332C47.7379 22.332 49.1027 20.9462 49.1027 19.2382C49.1027 17.5302 47.7379 16.1445 46.0558 16.1445V16.1455ZM32.5023 19.7603C25.3015 19.7603 19.4632 25.6884 19.4632 33.0003C19.4632 40.3121 25.3015 46.2374 32.5023 46.2374C39.7033 46.2374 45.5396 40.3121 45.5396 33.0003C45.5396 25.6887 39.7028 19.7603 32.5018 19.7603H32.5023ZM32.5023 24.4063C37.1764 24.4063 40.966 28.2537 40.966 33.0003C40.966 37.7463 37.1764 41.5942 32.5023 41.5942C27.8279 41.5942 24.0388 37.7463 24.0388 33.0003C24.0388 28.2537 27.8279 24.4063 32.5023 24.4063Z" fill="white"/>
</g>
<defs>
<radialGradient id="paint0_radial_2_14" cx="0" cy="0" r="1" gradientUnits="userSpaceOnUse" gradientTransform="translate(17.2656 71.0833) rotate(-90) scale(65.4109 59.9155)">
<stop stop-color="#FFDD55"/>
<stop offset="0.1" stop-color="#FFDD55"/>
<stop offset="0.5" stop-color="#FF543E"/>
<stop offset="1" stop-color="#C837AB"/>
</radialGradient>
<clipPath id="clip0_2_14">
<rect width="65" height="66" fill="white"/>
</clipPath>
</defs>
</svg>
