<svg width="86" height="82" viewBox="0 0 86 82" fill="none" xmlns="http://www.w3.org/2000/svg">
<path d="M42.8567 43.5967C44.8275 43.5967 46.5153 42.927 47.9199 41.5877C49.3222 40.2506 50.0233 38.6425 50.0233 36.7633C50.0233 34.8842 49.3222 33.2749 47.9199 31.9356C46.5153 30.5985 44.8275 29.93 42.8567 29.93C40.8858 29.93 39.1993 30.5985 37.797 31.9356C36.3923 33.2749 35.69 34.8842 35.69 36.7633C35.69 38.6425 36.3923 40.2506 37.797 41.5877C39.1993 42.927 40.8858 43.5967 42.8567 43.5967ZM42.8567 68.7092C50.1428 62.3314 55.5476 56.5367 59.0713 51.3252C62.5949 46.1159 64.3567 41.4897 64.3567 37.4467C64.3567 31.2397 62.2807 26.1569 58.1288 22.1981C53.9793 18.2416 48.8886 16.2633 42.8567 16.2633C36.8247 16.2633 31.7328 18.2416 27.5809 22.1981C23.4314 26.1569 21.3567 31.2397 21.3567 37.4467C21.3567 41.4897 23.1185 46.1159 26.6421 51.3252C30.1657 56.5367 35.5706 62.3314 42.8567 68.7092ZM42.8567 77.7633C33.2414 69.9619 26.0604 62.7152 21.3137 56.0231C16.5646 49.3332 14.19 43.1411 14.19 37.4467C14.19 28.905 17.0722 22.1001 22.8366 17.0321C28.5986 11.964 35.2719 9.42999 42.8567 9.42999C50.4414 9.42999 57.1148 11.964 62.8768 17.0321C68.6411 22.1001 71.5233 28.905 71.5233 37.4467C71.5233 43.1411 69.15 49.3332 64.4033 56.0231C59.6541 62.7152 52.4719 69.9619 42.8567 77.7633Z" fill="#8C8C8C"/>
</svg>
