<svg width="78" height="81" viewBox="0 0 78 81" fill="none" xmlns="http://www.w3.org/2000/svg">
<g clip-path="url(#clip0_2_20)">
<path d="M1.66451 40.0153C1.66268 46.8208 3.38843 53.466 6.66991 59.3231L1.35068 79.3351L21.2261 73.9653C26.7233 77.0489 32.8826 78.6647 39.1417 78.6651H39.1581C59.8205 78.6651 76.6402 61.3402 76.649 40.0457C76.653 29.727 72.7566 20.024 65.6775 12.7239C58.5996 5.4245 49.1863 1.40244 39.1566 1.39774C18.4918 1.39774 1.67334 18.7217 1.66481 40.0153" fill="#999A9A"/>
<path d="M0.326016 40.0027C0.323883 47.0531 2.11148 53.9359 5.50997 60.0028L0 80.7322L20.588 75.1699C26.2607 78.3568 32.6476 80.0371 39.1466 80.0396H39.1633C60.567 80.0396 77.9909 62.0915 78 40.0347C78.0037 29.3452 73.9672 19.2934 66.6352 11.7318C59.3022 4.17119 49.5522 0.00439535 39.1633 0C17.756 0 0.334547 17.9456 0.326016 40.0027ZM12.5866 58.9579L11.8179 57.7006C8.5864 52.406 6.88076 46.2877 6.8832 40.0052C6.8902 21.6719 21.3702 6.75628 39.1755 6.75628C47.7982 6.76005 55.9016 10.2236 61.9966 16.5077C68.0913 22.7924 71.445 31.1467 71.4428 40.0322C71.4349 58.3655 56.9546 73.283 39.1633 73.283H39.1505C33.3575 73.2799 27.676 71.6768 22.7212 68.6475L21.542 67.927L9.32466 71.2276L12.5866 58.9576V58.9579Z" fill="url(#paint0_linear_2_20)"/>
<path d="M28.5619 23.0667C27.8349 21.4019 27.0699 21.3683 26.3785 21.3391C25.8124 21.3139 25.1653 21.3158 24.5187 21.3158C23.8716 21.3158 22.8201 21.5667 21.9313 22.5666C21.0416 23.5675 18.5347 25.9862 18.5347 30.9055C18.5347 35.8252 22.0121 40.5794 22.4968 41.2472C22.9822 41.9137 29.21 52.3319 39.0733 56.3399C47.2706 59.6706 48.9388 59.0081 50.7179 58.8411C52.4973 58.6747 56.4594 56.4231 57.2677 54.0882C58.0767 51.7536 58.0767 49.7525 57.8342 49.3343C57.5916 48.9177 56.9445 48.6675 55.974 48.1676C55.0033 47.6675 50.2325 45.2485 49.3431 44.9148C48.4534 44.5814 47.8066 44.415 47.1594 45.4162C46.5123 46.4158 44.654 48.6675 44.0876 49.3343C43.5218 50.0027 42.9553 50.0859 41.9852 49.5858C41.0142 49.0841 37.889 48.0295 34.1813 44.6234C31.2965 41.973 29.3489 38.7001 28.7828 37.6989C28.2167 36.6992 28.7222 36.1574 29.2088 35.6591C29.6448 35.2111 30.1795 34.4915 30.6652 33.9079C31.149 33.3239 31.3105 32.9073 31.6341 32.2405C31.958 31.573 31.7959 30.9891 31.5536 30.4889C31.3105 29.9888 29.4248 25.0437 28.5619 23.0667Z" fill="white"/>
</g>
<defs>
<linearGradient id="paint0_linear_2_20" x1="3900" y1="8073.22" x2="3900" y2="0" gradientUnits="userSpaceOnUse">
<stop stop-color="#F9F9F9"/>
<stop offset="1" stop-color="white"/>
</linearGradient>
<clipPath id="clip0_2_20">
<rect width="78" height="81" fill="white"/>
</clipPath>
</defs>
</svg>
